<svg width="17" height="18" viewBox="0 0 17 18" fill="none" xmlns="http://www.w3.org/2000/svg">
<path d="M0.53136 3.00574H8.62148C8.86531 4.11558 9.85643 4.94879 11.0384 4.94879C12.2205 4.94879 13.2116 4.11562 13.4554 3.00574H16.4722C16.7656 3.00574 17.0035 2.76782 17.0035 2.47438C17.0035 2.18094 16.7656 1.94302 16.4722 1.94302H13.4551C13.2108 0.833737 12.2184 0 11.0384 0C9.85789 0 8.86588 0.833605 8.62168 1.94302H0.53136C0.237916 1.94302 0 2.18094 0 2.47438C0 2.76782 0.237916 3.00574 0.53136 3.00574ZM9.62682 2.47577C9.62682 2.47388 9.62685 2.47195 9.62685 2.47006C9.62917 1.69404 10.2624 1.06275 11.0384 1.06275C11.8134 1.06275 12.4466 1.69318 12.45 2.46883L12.4501 2.47664C12.4489 3.25398 11.8161 3.8861 11.0384 3.8861C10.2611 3.8861 9.62854 3.25461 9.62678 2.47773L9.62682 2.47577ZM16.4722 14.0142H13.4551C13.2108 12.905 12.2184 12.0712 11.0384 12.0712C9.85789 12.0712 8.86588 12.9048 8.62168 14.0142H0.53136C0.237916 14.0142 0 14.2521 0 14.5456C0 14.8391 0.237916 15.0769 0.53136 15.0769H8.62148C8.86531 16.1868 9.85643 17.02 11.0384 17.02C12.2205 17.02 13.2116 16.1868 13.4554 15.0769H16.4722C16.7656 15.0769 17.0035 14.8391 17.0035 14.5456C17.0035 14.2521 16.7656 14.0142 16.4722 14.0142ZM11.0384 15.9573C10.2611 15.9573 9.62854 15.3258 9.62678 14.5489L9.62682 14.547C9.62682 14.5451 9.62685 14.5432 9.62685 14.5413C9.62917 13.7653 10.2624 13.1339 11.0384 13.1339C11.8134 13.1339 12.4466 13.7644 12.45 14.54L12.4501 14.5478C12.449 15.3252 11.8162 15.9573 11.0384 15.9573ZM16.4722 7.97864H8.38204C8.13821 6.86879 7.14709 6.03562 5.96508 6.03562C4.78307 6.03562 3.79195 6.86879 3.54812 7.97864H0.53136C0.237916 7.97864 0 8.21656 0 8.51C0 8.80348 0.237916 9.04136 0.53136 9.04136H3.54839C3.79272 10.1506 4.78516 10.9844 5.96508 10.9844C7.14563 10.9844 8.13765 10.1507 8.38184 9.04136H16.4722C16.7656 9.04136 17.0035 8.80348 17.0035 8.51C17.0035 8.21656 16.7656 7.97864 16.4722 7.97864ZM7.37671 8.50861C7.37671 8.51053 7.37667 8.51242 7.37667 8.51432C7.37435 9.29034 6.74113 9.92163 5.96508 9.92163C5.19013 9.92163 4.55688 9.2912 4.55352 8.51558L4.55342 8.50781C4.55459 7.73036 5.1874 7.09834 5.96508 7.09834C6.74239 7.09834 7.37498 7.7298 7.37674 8.50671L7.37671 8.50861Z" fill="#898989"/>
</svg>
