<svg width="18" height="21" viewBox="0 0 18 21" fill="none" xmlns="http://www.w3.org/2000/svg">
<path fill-rule="evenodd" clip-rule="evenodd" d="M16.5668 14.6103L11.0617 20.142C10.8555 20.3486 10.5841 20.452 10.3125 20.452L10.3125 0.500183C10.8971 0.500183 11.625 0.72003 11.625 1.30462L11.625 16.5762L15.0663 13.1169C15.4787 12.7026 16.1488 12.701 16.5632 13.1134C16.9776 13.5258 16.9791 14.196 16.5668 14.6103Z" fill="#63AF23"/>
<path d="M11.0617 20.142L11.2387 20.3186L11.2389 20.3183L11.0617 20.142ZM16.5668 14.6103L16.744 14.7867L16.744 14.7867L16.5668 14.6103ZM10.3125 20.452L10.0625 20.452L10.0625 20.7019L10.3124 20.702L10.3125 20.452ZM10.3125 0.500183L10.3125 0.250183L10.0625 0.250183L10.0625 0.500183L10.3125 0.500183ZM11.625 16.5762L11.375 16.5762L11.375 17.182L11.8022 16.7525L11.625 16.5762ZM15.0663 13.1169L14.8891 12.9406L14.8891 12.9406L15.0663 13.1169ZM16.5632 13.1134L16.3868 13.2906L16.3868 13.2906L16.5632 13.1134ZM11.2389 20.3183L16.744 14.7867L16.3896 14.434L10.8845 19.9656L11.2389 20.3183ZM10.3124 20.702C10.6474 20.702 10.9835 20.5743 11.2387 20.3186L10.8848 19.9654C10.7276 20.1229 10.5208 20.202 10.3126 20.202L10.3124 20.702ZM10.0625 0.500183L10.0625 20.452L10.5625 20.452L10.5625 0.500183L10.0625 0.500183ZM11.875 1.30462C11.875 0.884363 11.605 0.612789 11.3001 0.459753C10.9997 0.308947 10.6299 0.250183 10.3125 0.250183L10.3125 0.750183C10.5797 0.750183 10.8661 0.801343 11.0758 0.906608C11.2811 1.00964 11.375 1.14029 11.375 1.30462L11.875 1.30462ZM11.875 16.5762L11.875 1.30462L11.375 1.30462L11.375 16.5762L11.875 16.5762ZM14.8891 12.9406L11.4478 16.3999L11.8022 16.7525L15.2435 13.2932L14.8891 12.9406ZM16.7395 12.9362C16.2273 12.4264 15.3989 12.4284 14.8891 12.9406L15.2435 13.2933C15.5585 12.9768 16.0703 12.9756 16.3868 13.2906L16.7395 12.9362ZM16.744 14.7867C17.2537 14.2745 17.2518 13.446 16.7395 12.9362L16.3868 13.2906C16.7033 13.6056 16.7045 14.1175 16.3896 14.434L16.744 14.7867Z" fill="#63AF23"/>
<path fill-rule="evenodd" clip-rule="evenodd" d="M1.43322 6.34165L6.93826 0.809993C7.14446 0.603349 7.4159 0.499936 7.6875 0.500007L7.6875 20.4518C7.10291 20.4518 6.375 20.2319 6.375 19.6473L6.375 4.37575L2.93371 7.83504C2.52133 8.24938 1.85116 8.25097 1.43682 7.83859C1.02243 7.42615 1.0209 6.75599 1.43322 6.34165Z" fill="#63AF23"/>
<path d="M6.93826 0.809993L6.76129 0.633408L6.76106 0.633643L6.93826 0.809993ZM1.43322 6.34165L1.25602 6.1653L1.25602 6.1653L1.43322 6.34165ZM7.6875 0.500007L7.9375 0.500007L7.9375 0.250071L7.68757 0.250007L7.6875 0.500007ZM7.6875 20.4518L7.6875 20.7018L7.9375 20.7018L7.9375 20.4518L7.6875 20.4518ZM6.375 19.6473L6.625 19.6473L6.375 19.6473ZM6.375 4.37575L6.625 4.37575L6.625 3.76997L6.19777 4.19944L6.375 4.37575ZM2.93371 7.83504L3.1109 8.0114L3.11094 8.01136L2.93371 7.83504ZM1.43682 7.83859L1.61318 7.66139L1.61318 7.66139L1.43682 7.83859ZM6.76106 0.633643L1.25602 6.1653L1.61043 6.518L7.11547 0.986342L6.76106 0.633643ZM7.68757 0.250007C7.35256 0.249919 7.01649 0.377652 6.76129 0.633408L7.11523 0.986577C7.27242 0.829045 7.47923 0.749953 7.68744 0.750007L7.68757 0.250007ZM7.9375 20.4518L7.9375 0.500007L7.4375 0.500007L7.4375 20.4518L7.9375 20.4518ZM6.125 19.6473C6.125 20.0676 6.39501 20.3392 6.69987 20.4922C7.00028 20.643 7.37009 20.7018 7.6875 20.7018L7.6875 20.2018C7.42031 20.2018 7.13388 20.1506 6.92419 20.0454C6.71894 19.9423 6.625 19.8117 6.625 19.6473L6.125 19.6473ZM6.125 4.37575L6.125 19.6473L6.625 19.6473L6.625 4.37575L6.125 4.37575ZM3.11094 8.01136L6.55224 4.55207L6.19777 4.19944L2.75647 7.65873L3.11094 8.01136ZM1.26046 8.01578C1.77266 8.52556 2.60112 8.5236 3.1109 8.0114L2.75651 7.65868C2.44153 7.97516 1.92966 7.97637 1.61318 7.66139L1.26046 8.01578ZM1.25602 6.1653C0.746314 6.67749 0.748207 7.50594 1.26046 8.01578L1.61318 7.66139C1.29666 7.34636 1.29548 6.83448 1.61043 6.518L1.25602 6.1653Z" fill="#63AF23"/>
</svg>
